<?xml version="1.0" encoding="UTF-8" standalone="no"?>
<!-- Generator: Adobe Illustrator 13.0.3, SVG Export Plug-In . SVG Version: 6.00 Build 14948)  -->
<svg version="1.1" id="レイヤー_1" xmlns="http://www.w3.org/2000/svg" xmlns:xlink="http://www.w3.org/1999/xlink" x="0px"
	 y="0px" width="76px" height="76px" viewBox="0 0 76 76" enable-background="new 0 0 76 76" xml:space="preserve">
<g
   id="rect1313_66_">
	<polygon fill="#B9B9B9" points="75.001,75.001 1,75.001 1,1 75.001,1 75.001,75.001  " id="polygon3033" />
	<path fill="#757575" d="M75.991,0C75.996,0,76,0.004,76,0.009V75.99c0,0.006-0.004,0.01-0.009,0.01H0.009   C0.004,76,0,75.996,0,75.99V0.009C0,0.004,0.004,0,0.009,0H75.991 M74,2H2v72h72V2L74,2z" id="path3035" />
</g>
<path d="M 70.901094,39.994053 V 35.731232 H 61.675117 C 61.234933,30.741195 59.268418,26.192946 56.242598,22.560867 l 6.523139,-6.550177 -3.00077,-3.014106 -6.527611,6.550171 C 49.62015,16.508856 45.090367,14.534249 40.121295,14.092022 V 4.8277072 h -4.246168 v 9.2643148 c -4.969968,0.441787 -9.49975,2.416395 -13.116957,5.454294 l -6.523137,-6.549732 -3.001664,3.014106 6.523138,6.549728 c -3.024925,3.632528 -4.99144,8.181217 -5.431623,13.171255 H 5.0989059 v 4.26282 h 9.2259781 c 0.440183,4.990918 2.405804,9.539602 5.431623,13.17125 l -6.522242,6.549716 3.001663,3.013671 6.522242,-6.548835 c 3.617207,3.037452 8.146989,5.011617 13.117851,5.453388 v 9.267411 h 4.245274 v -9.264321 c 4.969967,-0.441789 9.49975,-2.415954 13.116955,-5.453846 l 6.523139,6.549285 3.001664,-3.013663 -6.522244,-6.550156 c 3.024925,-3.631647 4.99144,-8.18035 5.430729,-13.170819 h 9.229556 v -0.373513 z" id="path13"
   style="fill:#000000;stroke:#000000;stroke-width:2.1978116" />
</svg>
