<?xml version="1.0" encoding="utf-8"?>
<!-- Modified version of flag.svg with X across it  -->
<!DOCTYPE svg PUBLIC "-//W3C//DTD SVG 1.1//EN" "http://www.w3.org/Graphics/SVG/1.1/DTD/svg11.dtd">
<svg version="1.1" id="レイヤー_1" xmlns="http://www.w3.org/2000/svg" xmlns:xlink="http://www.w3.org/1999/xlink" x="0px"
	 y="0px" width="76px" height="76px" viewBox="0 0 76 76" enable-background="new 0 0 76 76" xml:space="preserve">
<g>
<g id="rect1313_66_">
	<polygon fill="#B9B9B9" points="75.001,75.001 1,75.001 1,1 75.001,1 75.001,75.001 	"/>
	<path fill="#757575" d="M75.991,0C75.996,0,76,0.004,76,0.009V75.99c0,0.006-0.004,0.01-0.009,0.01H0.009
		C0.004,76,0,75.996,0,75.99V0.009C0,0.004,0.004,0,0.009,0H75.991 M74,2H2v72h72V2L74,2z"/>
</g>
	<g>
		<polygon points="35.999,55.5 35.999,16.5 40,16.5 40,55.5 35.999,55.5 		"/>
		<polygon fill="#FF0000" points="40,13.875 19.375,27 40,40.125 		"/>
		<rect x="28.571" y="51.625" width="18.857" height="5.5"/>
		<rect x="20.222" y="56.459" width="35.555" height="7.041"/>
	</g>
	<g>
	  <path d="M 73,73 L 3,3 M 73,3 L 3,73" stroke="black" stroke-width="3" stroke-linecap="round"/>
	</g>
</g>
</svg>
